<?xml version="1.0" encoding="iso-8859-1"?>
<!-- Generator: Adobe Illustrator 18.0.0, SVG Export Plug-In . SVG Version: 6.00 Build 0)  -->
<!DOCTYPE svg PUBLIC "-//W3C//DTD SVG 1.1//EN" "http://www.w3.org/Graphics/SVG/1.1/DTD/svg11.dtd">
<svg version="1.1" id="Capa_1" xmlns="http://www.w3.org/2000/svg" xmlns:xlink="http://www.w3.org/1999/xlink" x="0px" y="0px"
	 viewBox="0 0 77.108 77.671" style="enable-background:new 0 0 77.108 77.671;" xml:space="preserve">
<g>
	<path d="M75.468,1.688C74.378,0.574,73.03,0,71.437,0H5.672C4.078,0,2.73,0.574,1.641,1.688C0.574,2.777,0,4.125,0,5.672v56.53
		c0,1.547,0.551,2.918,1.641,4.032c1.066,1.089,2.437,1.64,4.031,1.64h37.359l17.578,9.797v-9.797h10.828
		c1.593,0,2.964-0.551,4.031-1.64c1.09-1.114,1.64-2.485,1.64-4.032V24.797V5.672C77.108,4.125,76.534,2.777,75.468,1.688z
		 M71.905,19.125v5.672v37.405c0,0.329-0.14,0.516-0.468,0.516H60.609h-5.203v5.156v0.985l-1.735-0.985l-8.156-4.593l-1.172-0.563
		H13.734H5.672c-0.328,0-0.469-0.187-0.469-0.516V5.672c0-0.328,0.141-0.469,0.469-0.469h65.765c0.328,0,0.468,0.141,0.468,0.469
		V19.125z"/>
	<path d="M58.78,39.656H40.031c-1.453,0-2.578,1.125-2.578,2.578s1.125,2.625,2.578,2.625H58.78c1.454,0,2.579-1.172,2.579-2.625
		S60.234,39.656,58.78,39.656z"/>
	<path d="M58.78,28.125H26.625c-1.453,0-2.625,1.172-2.625,2.625c0,1.453,1.172,2.578,2.625,2.578H58.78
		c1.454,0,2.579-1.125,2.579-2.578C61.359,29.297,60.234,28.125,58.78,28.125z"/>
	<path d="M58.78,16.5H18.328c-1.453,0-2.578,1.172-2.578,2.625c0,1.453,1.125,2.578,2.578,2.578H58.78
		c1.454,0,2.579-1.125,2.579-2.578C61.359,17.672,60.234,16.5,58.78,16.5z"/>
</g>
<g>
</g>
<g>
</g>
<g>
</g>
<g>
</g>
<g>
</g>
<g>
</g>
<g>
</g>
<g>
</g>
<g>
</g>
<g>
</g>
<g>
</g>
<g>
</g>
<g>
</g>
<g>
</g>
<g>
</g>
</svg>
