<?xml version="1.0" encoding="iso-8859-1"?>
<!-- Generator: Adobe Illustrator 18.0.0, SVG Export Plug-In . SVG Version: 6.00 Build 0)  -->
<!DOCTYPE svg PUBLIC "-//W3C//DTD SVG 1.1//EN" "http://www.w3.org/Graphics/SVG/1.1/DTD/svg11.dtd">
<svg version="1.1" id="Capa_1" xmlns="http://www.w3.org/2000/svg" xmlns:xlink="http://www.w3.org/1999/xlink" x="0px" y="0px"
	 viewBox="0 0 77.062 73.64" style="enable-background:new 0 0 77.062 73.64;" xml:space="preserve">
<g>
	<path d="M75.421,7.453c-1.09-1.113-2.39-1.687-3.984-1.687H54.703V2.578C54.703,1.125,53.578,0,52.125,0s-2.578,1.125-2.578,2.578
		v3.188H27.563V2.578C27.563,1.125,26.391,0,24.938,0c-1.454,0-2.578,1.125-2.578,2.578v3.188H5.672
		c-1.593,0-2.941,0.574-4.031,1.687C0.575,8.543,0,9.891,0,11.438v56.53c0,1.547,0.551,2.918,1.641,4.031
		c1.066,1.09,2.438,1.641,4.031,1.641h65.765c1.594,0,2.918-0.551,3.984-1.641c1.09-1.114,1.641-2.484,1.641-4.031v-56.53
		C77.062,9.891,76.488,8.543,75.421,7.453z M71.906,67.968c0,0.328-0.141,0.469-0.469,0.469H5.672c-0.234,0-0.515-0.281-0.515-0.469
		V29.859h66.749V67.968z M71.906,24.703H5.157V11.438c0-0.328,0.187-0.469,0.515-0.469H22.36v1.125c0,1.453,1.124,2.625,2.578,2.625
		c1.453,0,2.625-1.172,2.625-2.625v-1.125h21.984v1.125c0,1.453,1.125,2.625,2.578,2.625s2.578-1.172,2.578-2.625v-1.125h16.734
		c0.328,0,0.469,0.141,0.469,0.469V24.703z"/>
	<rect x="27.75" y="36.891" width="11.297" height="11.203"/>
	<rect x="12.469" y="36.891" width="11.344" height="11.203"/>
	<rect x="12.469" y="52.031" width="11.344" height="11.344"/>
</g>
<g>
</g>
<g>
</g>
<g>
</g>
<g>
</g>
<g>
</g>
<g>
</g>
<g>
</g>
<g>
</g>
<g>
</g>
<g>
</g>
<g>
</g>
<g>
</g>
<g>
</g>
<g>
</g>
<g>
</g>
</svg>
