<?xml version="1.0" encoding="iso-8859-1"?>
<!-- Generator: Adobe Illustrator 18.1.1, SVG Export Plug-In . SVG Version: 6.00 Build 0)  -->
<svg version="1.1" id="Capa_1" xmlns="http://www.w3.org/2000/svg" xmlns:xlink="http://www.w3.org/1999/xlink" x="0px" y="0px"
	 viewBox="0 0 30.711 30.714" style="enable-background:new 0 0 30.711 30.714;" xml:space="preserve">
<g>
	<path style="fill-rule:evenodd;clip-rule:evenodd;fill:#050008;" d="M26.876,28.32c0,0.265-0.215,0.48-0.48,0.48
		c-0.264,0-0.48-0.215-0.48-0.48V0.48c0-0.265,0.215-0.48,0.48-0.48c0.265,0,0.48,0.215,0.48,0.48V28.32z"/>
	<path style="fill-rule:evenodd;clip-rule:evenodd;fill:#050008;" d="M0.961,30.234c0,0.264-0.215,0.48-0.48,0.48
		c-0.264,0-0.48-0.215-0.48-0.48V0.482c0-0.265,0.215-0.48,0.48-0.48c0.265,0,0.48,0.215,0.48,0.48V30.234z"/>
	<path style="fill-rule:evenodd;clip-rule:evenodd;fill:#050008;" d="M0.48,30.712c-0.264,0-0.48-0.215-0.48-0.48
		c0-0.265,0.215-0.48,0.48-0.48h29.751c0.265,0,0.48,0.215,0.48,0.48c0,0.264-0.215,0.48-0.48,0.48H0.48z"/>
	<path style="fill-rule:evenodd;clip-rule:evenodd;fill:#050008;" d="M30.711,30.233c0,0.264-0.215,0.48-0.48,0.48
		c-0.265,0-0.48-0.215-0.48-0.48V3.361c0-0.265,0.215-0.48,0.48-0.48c0.265,0,0.48,0.215,0.48,0.48V30.233z"/>
	<path style="fill-rule:evenodd;clip-rule:evenodd;fill:#050008;" d="M0.48,0.962C0.215,0.962,0,0.747,0,0.482
		c0-0.265,0.215-0.48,0.48-0.48h25.916c0.265,0,0.48,0.215,0.48,0.48c0,0.264-0.215,0.48-0.48,0.48H0.48z"/>
	<path style="fill-rule:evenodd;clip-rule:evenodd;fill:#050008;" d="M12.957,4.8c-0.265,0-0.48-0.215-0.48-0.48
		s0.215-0.48,0.48-0.48h9.599c0.265,0,0.48,0.215,0.48,0.48s-0.215,0.48-0.48,0.48H12.957z"/>
	<path style="fill-rule:evenodd;clip-rule:evenodd;fill:#050008;" d="M4.319,3.84h0.012h4.785c0.265,0,0.48,0.215,0.48,0.48v0.012
		V8.16c0,0.265-0.215,0.48-0.48,0.48H9.105H4.319c-0.265,0-0.48-0.215-0.48-0.48V8.147V4.32C3.839,4.056,4.054,3.84,4.319,3.84
		L4.319,3.84z M8.637,4.8H4.799V7.68h3.838V4.8z"/>
	<path style="fill-rule:evenodd;clip-rule:evenodd;fill:#050008;" d="M28.793,28.319c0,0.265-0.215,0.48-0.48,0.48
		c-0.265,0-0.48-0.215-0.48-0.48V2.401c0-0.264,0.215-0.48,0.48-0.48c0.265,0,0.48,0.215,0.48,0.48V28.319z"/>
	<path style="fill-rule:evenodd;clip-rule:evenodd;fill:#050008;" d="M4.32,12.48c-0.265,0-0.48-0.215-0.48-0.48
		c0-0.265,0.215-0.48,0.48-0.48h9.598c0.265,0,0.48,0.215,0.48,0.48c0,0.265-0.215,0.48-0.48,0.48H4.32z"/>
	<path style="fill-rule:evenodd;clip-rule:evenodd;fill:#050008;" d="M4.32,16.319c-0.265,0-0.48-0.215-0.48-0.48
		c0-0.265,0.215-0.48,0.48-0.48h9.598c0.265,0,0.48,0.215,0.48,0.48c0,0.265-0.215,0.48-0.48,0.48H4.32z"/>
	<path style="fill-rule:evenodd;clip-rule:evenodd;fill:#050008;" d="M4.319,24.001c-0.265,0-0.48-0.215-0.48-0.48
		c0-0.265,0.215-0.48,0.48-0.48h18.24c0.265,0,0.48,0.215,0.48,0.48c0,0.265-0.215,0.48-0.48,0.48H4.319z"/>
	<path style="fill-rule:evenodd;clip-rule:evenodd;fill:#050008;" d="M17.757,11.52h0.012h4.788c0.265,0,0.48,0.215,0.48,0.48v0.012
		v7.666c0,0.264-0.215,0.48-0.48,0.48h-0.012h-4.788c-0.264,0-0.48-0.215-0.48-0.48v-0.013V12
		C17.277,11.736,17.493,11.52,17.757,11.52L17.757,11.52z M22.077,12.48h-3.84v6.718h3.84V12.48z"/>
	<path style="fill-rule:evenodd;clip-rule:evenodd;fill:#050008;" d="M12.957,8.64c-0.265,0-0.48-0.215-0.48-0.48
		c0-0.264,0.215-0.48,0.48-0.48h9.599c0.265,0,0.48,0.215,0.48,0.48c0,0.265-0.215,0.48-0.48,0.48H12.957z"/>
	<path style="fill-rule:evenodd;clip-rule:evenodd;fill:#050008;" d="M4.32,20.159c-0.265,0-0.48-0.215-0.48-0.48
		c0-0.265,0.215-0.48,0.48-0.48h9.598c0.265,0,0.48,0.215,0.48,0.48c0,0.264-0.215,0.48-0.48,0.48H4.32z"/>
</g>
<g>
</g>
<g>
</g>
<g>
</g>
<g>
</g>
<g>
</g>
<g>
</g>
<g>
</g>
<g>
</g>
<g>
</g>
<g>
</g>
<g>
</g>
<g>
</g>
<g>
</g>
<g>
</g>
<g>
</g>
</svg>
