<?xml version="1.0" encoding="iso-8859-1"?>
<!-- Generator: Adobe Illustrator 18.0.0, SVG Export Plug-In . SVG Version: 6.00 Build 0)  -->
<!DOCTYPE svg PUBLIC "-//W3C//DTD SVG 1.1//EN" "http://www.w3.org/Graphics/SVG/1.1/DTD/svg11.dtd">
<svg version="1.1" id="Capa_1" xmlns="http://www.w3.org/2000/svg" xmlns:xlink="http://www.w3.org/1999/xlink" x="0px" y="0px"
	 viewBox="0 0 77.565 77.565" style="enable-background:new 0 0 77.565 77.565;" xml:space="preserve">
<g>
	<path d="M74.94,0H47.331c-0.703,0-1.312,0.281-1.828,0.797L0.738,45.515c-0.985,0.984-0.984,2.672,0,3.656l27.656,27.656
		c0.984,0.984,2.672,0.985,3.656,0l44.718-44.765c0.516-0.516,0.797-1.125,0.797-1.828V2.625C77.565,1.172,76.393,0,74.94,0z
		 M72.362,29.203l-42.14,42.046l-24-23.906l42.14-42.14h24V29.203z"/>
	<path d="M59.987,26.203c2.391,0,4.407-0.844,6.141-2.578c1.687-1.688,2.531-3.704,2.531-6.094c0-2.391-0.844-4.406-2.531-6.094
		c-1.641-1.64-3.703-2.484-6.141-2.484c-2.437,0-4.5,0.844-6.14,2.484c-1.641,1.641-2.485,3.703-2.485,6.141
		c0,2.39,0.844,4.406,2.485,6.047C55.581,25.359,57.597,26.203,59.987,26.203z M57.597,15.093c0.589-0.632,1.359-0.984,2.39-0.984
		c0.985,0,1.828,0.328,2.485,0.984c1.359,1.36,1.359,3.516,0,4.875c-0.703,0.703-1.547,1.078-2.485,1.078
		c-0.984,0-1.755-0.397-2.39-1.078c-0.679-0.727-1.078-1.5-1.078-2.39C56.519,16.64,56.919,15.821,57.597,15.093z"/>
</g>
<g>
</g>
<g>
</g>
<g>
</g>
<g>
</g>
<g>
</g>
<g>
</g>
<g>
</g>
<g>
</g>
<g>
</g>
<g>
</g>
<g>
</g>
<g>
</g>
<g>
</g>
<g>
</g>
<g>
</g>
</svg>
